# xmcd CD database file
#
# Track frame offsets:
#	150
#	17517
#	34780
#
# Disc length: 788 seconds
#
# Revision: 0
# Processed by: cddbd v1.5PL3 Copyright (c) Steve Scherf et al.
# Submitted via: CDex 1.40Release
#
DISCID=17031203
DTITLE=Mary J. Blige - Not Today
DYEAR=2003
DGENRE=R&B
TTITLE0=Not Today (radio edit) feat. Eve
TTITLE1=Ooh! (G-Unit remix radio edit) feat. G-Unit
TTITLE2=Love @ 1st Sight (Rish Rich Vocal remix) feat. Juggy D
EXTD=YEAR: 2003 ID3G: 14
EXTT0=
EXTT1=
EXTT2=
PLAYORDER=
